<svg width="55" height="55" viewBox="0 0 55 55" fill="none" xmlns="http://www.w3.org/2000/svg">
<g clip-path="url(#clip0_383_5)">
<rect width="55" height="55" rx="5" fill="#EEA7AD" fill-opacity="0.92"/>
<path d="M4.36582 19V5.125H5.08732L13.6158 12.8395V5.125H15.1698V19H14.4668L5.91982 11.2855V19H4.36582ZM19.7948 19V5.125H22.8658V19H19.7948ZM27.4908 19V5.125H28.2123L36.7408 12.8395V5.125H38.2948V19H37.5918L29.0448 11.2855V19H27.4908ZM41.3658 19V8.2145C41.3658 7.3635 41.668 6.63583 42.2723 6.0315C42.889 5.42717 43.6167 5.125 44.4553 5.125H47.5448C48.3835 5.125 49.105 5.43333 49.7093 6.05C50.3137 6.65433 50.6158 7.37583 50.6158 8.2145V19H47.5448V12.8395H44.4553V19H41.3658ZM44.4553 11.2855H47.5448V8.2145C47.5448 7.78283 47.3907 7.419 47.0823 7.123C46.7863 6.81467 46.4225 6.6605 45.9908 6.6605C45.5715 6.6605 45.2077 6.81467 44.8993 7.123C44.6033 7.419 44.4553 7.78283 44.4553 8.2145V11.2855Z" fill="#282C34"/>
<path d="M4.16496 29V21.5H8.33496V22.33H5.83496V24.83H7.50496V25.67H5.83496V28.17H8.33496V29H4.16496ZM9.99504 29V21.5H10.385L14.995 25.67V21.5H15.835V29H15.455L10.835 24.83V29H9.99504Z" fill="#282C34"/>
<path d="M22.58 24.83H25.08V27.33C25.08 27.89 24.9033 28.31 24.55 28.59C24.1967 28.8633 23.82 29 23.42 29H21.75C21.2967 29 20.9033 28.8367 20.57 28.51C20.2433 28.1833 20.08 27.79 20.08 27.33V23.17C20.08 22.7167 20.24 22.3267 20.56 22C20.8867 21.6667 21.2833 21.5 21.75 21.5H23.42C24.4667 21.5 25.02 22.0567 25.08 23.17H24.25C24.1833 22.61 23.9067 22.33 23.42 22.33H22.58C22.3533 22.33 22.1567 22.4133 21.99 22.58C21.83 22.74 21.75 22.9367 21.75 23.17V27.33C21.75 27.5633 21.83 27.7633 21.99 27.93C22.1567 28.09 22.3533 28.17 22.58 28.17C23.1133 28.1433 23.3933 27.8633 23.42 27.33V25.67H22.58V24.83ZM26.7499 29V21.5H28.4199V28.17H30.9199V29H26.7499Z" fill="#282C34"/>
<path d="M35.92 29V21.5H37.58V29H35.92ZM44.25 23.17H43.42C43.3467 22.61 43.0833 22.33 42.63 22.33C42.3367 22.33 42.1167 22.4 41.97 22.54C41.8233 22.68 41.75 22.89 41.75 23.17C41.75 23.3767 41.83 23.5733 41.99 23.76L43.76 25.74C44.0867 26.1067 44.25 26.5 44.25 26.92V27.33C44.25 27.7833 44.0867 28.1767 43.76 28.51C43.4333 28.8367 43.04 29 42.58 29H41.75C41.1967 29 40.78 28.8633 40.5 28.59C40.22 28.31 40.08 27.89 40.08 27.33H40.92C40.92 27.39 40.92 27.4367 40.92 27.47C40.92 27.6967 41.0067 27.87 41.18 27.99C41.3533 28.11 41.5433 28.17 41.75 28.17C42.0433 28.17 42.2533 28.1 42.38 27.96C42.5133 27.8133 42.58 27.6033 42.58 27.33C42.58 27.1167 42.5 26.92 42.34 26.74L40.57 24.76C40.2433 24.4 40.08 24.0067 40.08 23.58V23.17C40.08 22.7167 40.2433 22.3267 40.57 22C40.8967 21.6667 41.29 21.5 41.75 21.5H42.58C43.6267 21.5 44.1833 22.0567 44.25 23.17ZM45.9101 29V21.5H47.5801V24.83H49.2501V21.5H50.9101V29H49.2501V25.67H47.5801V29H45.9101Z" fill="#282C34"/>
<path d="M3.7885 30.875H5.375V37.2115H6.1635C6.38517 37.2115 6.572 37.1323 6.724 36.974C6.88233 36.8157 6.9615 36.6288 6.9615 36.4135V30.875H8.5385V37.2115H9.3365C9.55183 37.2115 9.7355 37.1323 9.8875 36.974C10.0458 36.8157 10.125 36.6288 10.125 36.4135V30.875H11.7115V35.2925C11.7115 36.0335 11.4455 36.67 10.9135 37.202C10.3878 37.734 9.75133 38 9.004 38H6.9615V37.753C6.6575 37.9177 6.28383 38 5.8405 38H3.7885V30.875ZM14.0865 38V30.875H15.6635V38H14.0865ZM18.8365 38V31.6635H17.25V30.875H22V31.6635H20.4135V38H18.8365ZM22.7885 38V30.875H24.375V34.0385H25.9615V30.875H27.5385V38H25.9615V34.8365H24.375V38H22.7885ZM29.1249 38V30.875H30.7114V37.2115H33.0864V38H29.1249ZM36.25 30.875H37.8365C38.2672 30.875 38.6377 31.0333 38.948 31.35C39.2583 31.6603 39.4135 32.0308 39.4135 32.4615V36.4135C39.4135 36.8442 39.2583 37.2178 38.948 37.5345C38.6377 37.8448 38.2672 38 37.8365 38H36.25C35.8193 38 35.4457 37.8448 35.129 37.5345C34.8187 37.2242 34.6635 36.8505 34.6635 36.4135V32.4615C34.6635 32.0245 34.8187 31.6508 35.129 31.3405C35.4457 31.0302 35.8193 30.875 36.25 30.875ZM36.25 32.4615V36.4135C36.25 36.6288 36.326 36.8157 36.478 36.974C36.6363 37.1323 36.8232 37.2115 37.0385 37.2115C37.2602 37.2115 37.447 37.1323 37.599 36.974C37.7573 36.8157 37.8365 36.6288 37.8365 36.4135V32.4615C37.8365 32.2398 37.7573 32.053 37.599 31.901C37.447 31.7427 37.2602 31.6635 37.0385 31.6635C36.8232 31.6635 36.6363 31.7427 36.478 31.901C36.326 32.053 36.25 32.2398 36.25 32.4615ZM44.1729 30.875H45.7499V35.2925C45.7499 36.0335 45.4839 36.67 44.9519 37.202C44.4263 37.734 43.7929 38 43.0519 38H40.9999V30.875H42.5864V37.2115H43.3749C43.5966 37.2115 43.7834 37.1323 43.9354 36.974C44.0938 36.8157 44.1729 36.6288 44.1729 36.4135V30.875ZM47.3364 38V30.875H51.2979V31.6635H48.9229V34.0385H50.5094V34.8365H48.9229V37.2115H51.2979V38H47.3364Z" fill="#282C34"/>
<path d="M6.25 40.25H8.421C9.01033 40.25 9.51733 40.4667 9.942 40.9C10.3667 41.3247 10.579 41.8317 10.579 42.421V47.829C10.579 48.4183 10.3667 48.9297 9.942 49.363C9.51733 49.7877 9.01033 50 8.421 50H6.25C5.66067 50 5.14933 49.7877 4.716 49.363C4.29133 48.9383 4.079 48.427 4.079 47.829V42.421C4.079 41.823 4.29133 41.3117 4.716 40.887C5.14933 40.4623 5.66067 40.25 6.25 40.25ZM6.25 42.421V47.829C6.25 48.1237 6.354 48.3793 6.562 48.596C6.77867 48.8127 7.03433 48.921 7.329 48.921C7.63233 48.921 7.888 48.8127 8.096 48.596C8.31267 48.3793 8.421 48.1237 8.421 47.829V42.421C8.421 42.1177 8.31267 41.862 8.096 41.654C7.888 41.4373 7.63233 41.329 7.329 41.329C7.03433 41.329 6.77867 41.4373 6.562 41.654C6.354 41.862 6.25 42.1177 6.25 42.421ZM12.7499 50V40.25H13.2569L19.2499 45.671V40.25H20.3419V50H19.8479L13.8419 44.579V50H12.7499ZM22.4999 50V40.25H24.6709V48.921H27.9209V50H22.4999Z" fill="#282C34"/>
<path d="M30.171 50V40.25H32.329V50H30.171ZM35.579 50V40.25H36.086L42.079 45.671V40.25H43.171V50H42.677L36.671 44.579V50H35.579ZM45.329 50V40.25H50.75V41.329H47.5V44.579H49.671V45.671H47.5V48.921H50.75V50H45.329Z" fill="#282C34"/>
</g>
<rect x="1" y="1" width="53" height="53" rx="4" stroke="#282C34" stroke-width="2"/>
<defs>
<clipPath id="clip0_383_5">
<rect width="55" height="55" rx="5" fill="white"/>
</clipPath>
</defs>
</svg>
